<?xml version="1.0" standalone="no"?>
<!DOCTYPE svg PUBLIC "-//W3C//DTD SVG 20010904//EN"
 "http://www.w3.org/TR/2001/REC-SVG-20010904/DTD/svg10.dtd">
<svg version="1.0" xmlns="http://www.w3.org/2000/svg"
 width="1079.000000pt" height="1079.000000pt" viewBox="0 0 1079.000000 1079.000000"
 preserveAspectRatio="xMidYMid meet">
<metadata>
Created by potrace 1.16, written by Peter Selinger 2001-2019
</metadata>
<g transform="translate(0.000000,1079.000000) scale(0.100000,-0.100000)"
fill="#000000" stroke="none">
<path d="M5010 10783 c-158 -12 -461 -51 -600 -77 -107 -20 -309 -65 -350 -77
-19 -5 -75 -21 -125 -34 -156 -42 -418 -131 -585 -200 -242 -100 -513 -236
-735 -370 -74 -44 -320 -205 -355 -232 -8 -6 -64 -48 -125 -94 -60 -45 -144
-111 -185 -147 -41 -35 -104 -89 -140 -120 -73 -62 -359 -347 -435 -433 -61
-69 -108 -124 -177 -209 -29 -36 -55 -67 -58 -70 -11 -11 -96 -126 -114 -155
-10 -16 -21 -32 -25 -35 -4 -3 -34 -45 -66 -95 -33 -49 -63 -92 -66 -95 -11
-9 -189 -310 -189 -319 0 -5 -6 -16 -13 -23 -10 -11 -105 -199 -208 -413 -25
-52 -74 -172 -105 -260 -14 -38 -31 -83 -39 -100 -20 -48 -80 -237 -123 -395
-55 -198 -87 -340 -111 -500 -12 -74 -26 -155 -31 -180 -60 -276 -60 -1234 0
-1510 5 -25 19 -106 31 -180 24 -160 56 -302 111 -500 43 -158 103 -347 123
-395 8 -16 25 -61 39 -100 31 -88 80 -208 105 -260 103 -214 198 -402 208
-413 7 -7 13 -18 13 -23 0 -9 178 -310 189 -319 3 -3 33 -45 66 -95 32 -49 62
-92 66 -95 4 -3 15 -19 25 -35 18 -29 103 -144 114 -155 3 -3 29 -34 58 -70
69 -85 116 -140 177 -209 76 -86 362 -371 435 -433 36 -31 99 -85 140 -120 41
-36 125 -102 185 -147 61 -46 117 -88 125 -94 35 -27 281 -188 355 -232 222
-134 493 -270 735 -370 167 -69 429 -158 585 -200 50 -13 106 -29 125 -34 41
-12 243 -57 350 -77 68 -13 266 -42 445 -65 39 -5 233 -12 432 -15 353 -6 607
3 743 27 30 5 123 18 205 30 83 11 188 29 235 39 47 11 132 31 190 44 178 40
457 121 570 166 25 10 95 37 155 60 61 24 143 58 183 77 41 18 75 33 78 33 2
0 72 34 155 75 235 117 470 257 679 403 30 21 71 49 90 63 286 200 661 546
921 849 69 80 138 163 154 185 17 22 32 42 35 45 4 3 19 23 36 45 16 22 32 44
37 50 117 156 293 433 382 600 17 33 49 92 69 130 21 39 60 120 88 180 28 61
60 133 73 160 12 28 31 73 41 100 9 28 21 55 24 60 4 6 19 46 34 90 15 44 34
94 41 110 30 68 129 420 166 590 43 201 56 275 79 452 36 273 39 329 39 728 0
399 -3 455 -39 728 -42 322 -96 563 -210 937 -17 58 -35 109 -39 115 -4 5 -20
48 -36 95 -15 47 -31 90 -35 95 -4 6 -15 33 -24 60 -10 28 -29 73 -41 100 -13
28 -45 100 -73 160 -28 61 -67 142 -88 180 -20 39 -52 97 -69 130 -89 167
-265 444 -382 600 -5 6 -21 28 -37 50 -17 22 -32 42 -36 45 -3 3 -18 23 -35
45 -16 22 -85 105 -154 185 -260 303 -635 649 -921 849 -19 14 -60 42 -90 63
-212 148 -445 286 -690 408 -88 44 -162 80 -165 80 -2 0 -33 13 -67 28 -35 16
-112 48 -173 72 -60 23 -130 50 -155 60 -113 45 -392 126 -570 166 -58 13
-143 33 -190 44 -47 10 -152 28 -235 39 -82 12 -177 25 -210 31 -125 21 -340
30 -649 28 -177 -1 -341 -3 -366 -5z m-2320 -3845 c70 -23 214 -90 239 -112 9
-7 23 -16 31 -19 12 -4 11 -6 -2 -6 -10 -1 -18 -5 -18 -10 0 -4 12 -7 28 -5
15 2 21 1 15 -2 -15 -6 -18 -70 -4 -78 5 -3 12 -42 16 -86 4 -44 11 -80 15
-80 4 0 13 -51 20 -112 7 -62 17 -117 24 -123 6 -6 11 -42 11 -86 l0 -76 -92
3 c-50 2 -94 0 -97 -4 -9 -15 48 -58 94 -71 74 -21 200 -87 275 -144 154 -117
271 -308 310 -504 l7 -33 -172 0 -171 0 -20 48 c-41 100 -76 156 -130 209 -65
65 -167 123 -216 123 -18 0 -50 7 -71 16 -25 10 -68 16 -132 16 -175 0 -305
-51 -432 -171 -67 -62 -86 -89 -124 -166 -111 -228 -96 -511 37 -709 118 -177
298 -269 524 -269 116 1 203 20 292 64 108 55 208 171 243 284 21 67 16 65
201 65 93 0 169 -4 169 -8 0 -5 -9 -44 -20 -86 -101 -394 -479 -654 -920 -633
-244 12 -435 90 -627 256 -76 64 -83 69 -83 48 0 -16 -58 -87 -71 -87 -6 0 -8
10 -5 23 l6 22 -11 -22 c-7 -13 -15 -23 -19 -23 -12 0 8 111 23 128 29 33 29
58 1 99 -69 102 -144 293 -113 293 4 0 6 7 3 15 -4 8 -1 15 4 15 6 0 10 9 9
20 -1 11 -5 20 -10 20 -5 0 -7 -7 -3 -15 3 -8 1 -15 -4 -15 -16 0 -21 19 -7
32 12 11 11 14 -7 23 -20 10 -21 18 -21 150 0 178 25 282 102 433 29 58 53
109 53 114 0 10 -61 -2 -78 -15 -10 -8 -20 -3 -39 21 -14 18 -43 42 -64 53
-68 34 -119 145 -144 309 -4 25 -12 51 -17 58 -6 7 -8 32 -5 56 4 25 3 46 -2
48 -5 2 -11 23 -14 48 -23 187 -38 220 -103 220 -24 0 -34 5 -34 15 0 23 166
185 250 244 123 86 321 178 357 164 8 -3 12 -8 9 -10 -3 -3 0 -11 7 -17 7 -7
23 -104 36 -220 14 -114 28 -209 33 -212 4 -3 8 -39 8 -80 0 -41 4 -74 8 -74
5 0 14 -54 21 -120 8 -76 17 -120 25 -120 6 -1 5 -6 -4 -13 -21 -17 -24 -45
-4 -49 9 -2 -32 -28 -90 -58 -58 -30 -106 -60 -106 -66 0 -13 54 -44 75 -44 6
0 22 12 36 26 101 109 340 221 512 240 78 8 83 11 59 38 -31 33 -43 64 -36 90
3 13 43 59 88 102 109 105 129 147 124 263 -2 70 -8 97 -32 146 -30 62 -89
148 -135 199 l-26 28 35 -7 c19 -3 64 -16 100 -27z m1101 -262 c43 -29 78 -90
79 -139 0 -33 -24 -94 -48 -120 -49 -55 -136 -71 -208 -38 -58 26 -87 72 -92
142 -4 49 0 65 22 102 51 88 159 111 247 53z m1392 -472 c70 -24 127 -102 127
-174 0 -100 -94 -189 -200 -190 -132 0 -213 72 -213 191 0 140 138 224 286
173z m4211 -50 c54 -19 101 -36 103 -38 3 -2 -46 -77 -108 -165 l-113 -161
-108 0 c-59 0 -108 4 -108 8 0 10 179 373 193 390 6 7 17 10 26 6 9 -3 61 -21
115 -40z m-1514 -329 l0 -205 210 0 210 0 0 -145 0 -145 -210 0 -210 0 0 -332
c0 -192 4 -348 10 -369 15 -54 50 -100 93 -122 31 -16 66 -21 178 -25 l139 -5
0 -133 0 -134 -182 0 c-249 0 -334 22 -428 106 -56 50 -96 126 -120 225 -18
76 -20 117 -20 436 l0 352 -147 3 -148 3 -3 142 -3 142 148 3 148 3 2 195 c1
107 2 198 2 203 1 4 75 7 166 7 l165 0 0 -205z m-1495 -185 c129 -33 259 -121
312 -211 10 -16 21 -29 25 -29 4 0 8 50 8 110 l0 110 155 0 155 0 0 -705 0
-705 -155 0 -155 0 0 110 c0 102 -10 138 -25 90 -3 -11 -32 -45 -63 -77 -59
-60 -146 -113 -229 -139 -69 -22 -238 -29 -315 -14 -150 29 -306 132 -396 263
-65 95 -93 156 -122 272 -20 78 -22 107 -17 230 5 160 22 228 90 360 52 101
181 234 274 283 135 71 307 90 458 52z m2933 4 c120 -24 249 -92 336 -178 146
-144 216 -318 216 -537 l0 -99 -551 0 -552 0 7 -42 c17 -111 112 -239 211
-284 182 -84 410 -25 477 122 11 24 11 24 190 24 133 0 178 -3 178 -12 0 -7
-19 -51 -42 -98 -62 -124 -169 -229 -298 -293 -419 -206 -903 10 -1032 458
-29 104 -32 305 -4 404 108 392 468 615 864 535z m-5150 -148 l3 -118 38 59
c85 131 211 188 401 181 l85 -3 0 -140 0 -140 -115 -6 c-63 -3 -131 -12 -150
-19 -127 -44 -215 -172 -240 -345 -5 -38 -10 -224 -10 -412 l0 -343 -165 0
-165 0 0 705 0 706 158 -3 157 -3 3 -119z m1100 -584 l2 -702 -167 2 -168 3
-3 690 c-1 380 0 696 3 703 3 10 43 12 167 10 l163 -3 3 -703z"/>
<path d="M6170 5333 c-103 -37 -191 -114 -237 -208 -36 -72 -46 -129 -41 -237
3 -91 8 -111 37 -175 103 -222 378 -305 584 -176 195 122 257 406 134 615 -36
61 -118 135 -185 166 -47 22 -73 27 -152 29 -67 2 -108 -2 -140 -14z"/>
<path d="M9045 5356 c-109 -34 -190 -104 -236 -200 -16 -33 -26 -63 -23 -68 3
-4 171 -8 375 -8 l369 0 0 23 c-1 57 -62 147 -134 197 -93 63 -249 88 -351 56z"/>
</g>
</svg>
